<?xml version="1.0" standalone="no"?><!DOCTYPE svg PUBLIC "-//W3C//DTD SVG 1.1//EN" "http://www.w3.org/Graphics/SVG/1.1/DTD/svg11.dtd"><svg t="1582685248307" class="icon" viewBox="0 0 1024 1024" version="1.1" xmlns="http://www.w3.org/2000/svg" p-id="2394" width="32" height="32" xmlns:xlink="http://www.w3.org/1999/xlink"><defs><style type="text/css"></style></defs><path d="M738.381 903.797H112.07a56.42 56.42 0 0 1-57.636-55.33v-61.095a57.188 57.188 0 0 1 15.05-38.424l72.108-96.06V472.423c0-82.099 27.858-158.37 78.706-214.47a266.727 266.727 0 0 1 82.547-62.055 36.695 36.695 0 0 0 19.212-20.3 110.02 110.02 0 0 1 103.169-73.134 110.02 110.02 0 0 1 103.617 73.07 36.695 36.695 0 0 0 19.212 20.3 266.727 266.727 0 0 1 82.099 62.12c50.591 56.098 78.385 132.306 78.385 214.47v179.952l72.109 96.06a57.124 57.124 0 0 1 14.857 38.872v60.838a56.42 56.42 0 0 1-57.636 55.33z m-0.64-116.425l-72.173-96.06a56.804 56.804 0 0 1-14.857-38.936V472.423c0-67.434-22.414-129.553-63.208-174.957a212.229 212.229 0 0 0-70.444-51.873q-4.739-2.113-9.606-4.034a50.656 50.656 0 0 1-32.788-36.951 52.577 52.577 0 0 0-2.114-8.07 50.08 50.08 0 0 0-35.862-32.403h-1.473a47.582 47.582 0 0 0-20.045 0H413.7a50.08 50.08 0 0 0-35.863 32.404 52.32 52.32 0 0 0-2.05 8.069 50.656 50.656 0 0 1-32.596 37.271q-4.867 1.857-9.541 4.035a212.229 212.229 0 0 0-70.444 51.872c-40.794 45.404-63.208 107.46-63.208 174.957v179.953a56.804 56.804 0 0 1-15.113 38.616l-72.174 96.06-0.576 60.262h626.183l-0.576-60.262zM373.61 949.265a76.208 76.208 0 0 0 43.29 17.931h16.651a76.208 76.208 0 0 0 43.355-17.93 73.326 73.326 0 0 0 18.636-25.617h59.941a128.4 128.4 0 0 1-39.96 66.346 134.868 134.868 0 0 1-80.179 32.916c-3.33 0-6.404 0.897-9.99 0.897-3.394 0-6.404-0.64-9.99-0.897a134.868 134.868 0 0 1-80.179-32.916 128.464 128.464 0 0 1-39.96-66.346h59.557a73.39 73.39 0 0 0 18.635 25.616z" fill="#333333" p-id="2395"></path><path d="M687.79 140.888a140.888 140.888 0 1 0 281.776 0 140.888 140.888 0 1 0-281.776 0z" fill="#D81E06" p-id="2396"></path></svg>