<?xml version="1.0" standalone="no"?><!DOCTYPE svg PUBLIC "-//W3C//DTD SVG 1.1//EN" "http://www.w3.org/Graphics/SVG/1.1/DTD/svg11.dtd"><svg t="1582649733122" class="icon" viewBox="0 0 1024 1024" version="1.1" xmlns="http://www.w3.org/2000/svg" p-id="4594" width="32" height="32" xmlns:xlink="http://www.w3.org/1999/xlink"><defs><style type="text/css"></style></defs><path d="M369.2544 621.8752s33.8944 93.184 63.5904 156.8768c29.696 63.5904 29.696 42.3936 29.696 42.3936s25.4976-84.7872 25.4976-101.7856c0-16.896-33.8944-33.8944-21.2992-63.5904 12.6976-29.696 50.7904-42.3936 80.4864-21.2992 29.696 16.896 25.4976 29.696 12.6976 59.392-12.6976 29.696-16.896 46.592-16.896 46.592l29.696 84.7872 88.9856-194.9696c25.4976-59.392 262.8608 173.8752 250.1632 296.7552-21.0944 131.4816-801.28 106.0864-801.28 38.1952 0-169.5744 84.7872-284.0576 258.6624-343.3472z m0 0" p-id="4595"></path><path d="M530.3296 2.7648c12.6976 0 21.2992 4.1984 33.8944 4.1984v59.392c0 8.4992 4.1984 12.6976 12.6976 12.6976h25.4976c8.4992 0 12.6976-4.1984 12.6976-12.6976V28.2624c80.5888 38.1952 135.68 118.6816 139.9808 212.0704h42.3936v42.3936H216.576v-42.3936h33.8944c4.1984-93.184 59.392-173.8752 135.68-212.0704v38.1952c0 8.4992 4.1984 12.6976 12.6976 12.6976h25.4976c8.4992 0 12.6976-4.1984 12.6976-12.6976V11.264c12.6976-4.1984 25.4976-8.4992 38.1952-8.4992v156.8768c0 8.4992 4.1984 12.6976 12.6976 12.6976h25.4976c8.4992 0 12.6976-4.1984 12.6976-12.6976V2.7648h4.1984z m0 0" p-id="4596"></path><path d="M275.8656 252.928s-21.2992 233.1648 80.5888 301.056c101.7856 67.8912 190.7712 80.4864 284.16 12.6976 93.184-63.5904 101.7856-114.4832 97.5872-212.0704-4.1984-93.184 0-105.984 0-105.984L275.8656 252.928z m25.4976 21.1968h411.2384v93.184c4.1984 80.4864-4.1984 127.1808-88.9856 186.5728-84.7872 55.0912-161.0752 46.592-254.3616-12.6976-84.7872-59.2896-67.8912-267.0592-67.8912-267.0592z m0 0" p-id="4597"></path><path d="M275.8656 291.1232c-42.3936-4.1984-55.0912 46.592-38.1952 76.288 16.896 25.4976 55.0912 42.3936 55.0912 42.3936l-4.1984-33.8944s-29.696 16.896-38.1952-21.2992c-8.2944-42.3936 38.2976-50.7904 25.4976-63.488z m466.432 0c42.3936-4.1984 55.0912 46.592 38.1952 76.288-16.896 25.4976-50.7904 42.3936-50.7904 42.3936l4.1984-29.696s29.696 16.896 38.1952-21.2992c4.1984-46.592-42.3936-54.9888-29.7984-67.6864z m0 0" p-id="4598"></path></svg>