<?xml version="1.0" standalone="no"?><!DOCTYPE svg PUBLIC "-//W3C//DTD SVG 1.1//EN" "http://www.w3.org/Graphics/SVG/1.1/DTD/svg11.dtd"><svg t="1582649990783" class="icon" viewBox="0 0 1024 1024" version="1.1" xmlns="http://www.w3.org/2000/svg" p-id="5478" width="32" height="32" xmlns:xlink="http://www.w3.org/1999/xlink"><defs><style type="text/css"></style></defs><path d="M240.776 240.872A302.952 302.952 0 0 0 157.328 512c18.048-81.912 60.48-161.952 126.576-228.096C350.048 217.736 430.088 175.328 512 157.28c-95.28-17.952-197.52 9.864-271.224 83.592z" fill="#969696" p-id="5479"></path><path d="M959.6 802.736l-114.096-114.096a110.64 110.64 0 0 0-87-31.992c107.304-155.208 91.8-369.744-46.392-507.96-155.568-155.616-407.856-155.616-563.472 0-155.568 155.616-155.568 407.928 0 563.544 138.192 138.216 352.56 153.6 507.864 46.296-2.4 31.2 8.304 63.312 31.992 87l114.096 114.12c43.2 43.104 113.784 43.104 156.888 0 43.32-43.104 43.32-113.712 0.12-156.912zM665.84 665.84c-130.008 130.008-340.68 130.008-470.64 0-130.008-130.008-130.008-340.728 0-470.736 129.96-130.008 340.632-130.008 470.64 0 129.984 129.912 129.984 340.728 0 470.736z" fill="#969696" p-id="5480"></path></svg>